<?xml version="1.0" encoding="UTF-8" standalone="no"?>
<!DOCTYPE svg PUBLIC "-//W3C//DTD SVG 1.1//EN" "http://www.w3.org/Graphics/SVG/1.1/DTD/svg11.dtd">
<!-- Generated by Microsoft Visio, SVG Export Wokwi-Simulate-Green.svg Page-1 -->
<svg xmlns="http://www.w3.org/2000/svg" xmlns:xlink="http://www.w3.org/1999/xlink" xmlns:ev="http://www.w3.org/2001/xml-events"
		xmlns:v="http://schemas.microsoft.com/visio/2003/SVGExtensions/" width="0.335794in" height="0.375164in"
		viewBox="0 0 24.1772 27.0118" xml:space="preserve" color-interpolation-filters="sRGB" class="st6">
	<v:documentProperties v:langID="1033" v:viewMarkup="false"/>

	<style type="text/css">
	<![CDATA[
		.st1 {fill:url(#grad0-4);stroke:none;stroke-linecap:butt;stroke-width:0.75}
		.st2 {fill:none;stroke:none;stroke-linecap:butt;stroke-width:0.75}
		.st3 {fill:#a5a5a5;font-family:Verdana;font-size:0.687492em}
		.st4 {fill:#ffffff;font-family:Verdana;font-size:0.687492em}
		.st5 {fill:#ffffff;stroke:none;stroke-linecap:butt;stroke-width:0.731613}
		.st6 {fill:none;fill-rule:evenodd;font-size:12px;overflow:visible;stroke-linecap:square;stroke-miterlimit:3}
	]]>
	</style>

	<defs id="Patterns_And_Gradients">
		<linearGradient id="grad0-4" x1="0" y1="0" x2="1" y2="0" gradientTransform="rotate(90 0.5 0.5)">
			<stop offset="0" stop-color="#f5f7fc" stop-opacity="1"/>
			<stop offset="0.12" stop-color="#008f83" stop-opacity="1"/>
		</linearGradient>
	</defs>
	<g v:mID="0" v:index="1" v:groupContext="foregroundPage">
		<title>Page-1</title>
		<v:pageProperties v:drawingScale="0.0393701" v:pageScale="0.0393701" v:drawingUnits="24" v:shadowOffsetX="8.50394"
				v:shadowOffsetY="-8.50394"/>
		<g id="shape13-1" v:mID="13" v:groupContext="shape" transform="translate(0.75,-0.75)">
			<title>Sheet.13</title>
			<path d="M0 23.19 a0.755923 3.82686 -180 0 0 0.755906 3.82677 L21.92 27.01 a0.755923 3.82686 -180 0 0 0.755906 -3.82677
						 L22.68 5.33 a0.755923 3.82686 -180 0 0 -0.755906 -3.82677 L0.76 1.5 a0.755923 3.82686 -180 0 0 -0.755906
						 3.82677 L0 23.19 Z" class="st1"/>
		</g>
		<g id="shape14-5" v:mID="14" v:groupContext="shape" transform="translate(3.58465,-0.75)">
			<title>Sheet.14</title>
			<desc>Sim</desc>
			<v:textBlock v:margins="rect(0,0,0,0)" v:tabSpace="42.5197"/>
			<v:textRect cx="8.50394" cy="22.0618" width="17.01" height="9.9"/>
			<rect x="0" y="17.1118" width="17.0079" height="9.9" class="st2"/>
			<text x="0.54" y="24.54" class="st3" v:langID="1033"><v:paragraph v:horizAlign="1"/><v:tabList/>Sim</text>		</g>
		<g id="shape15-8" v:mID="15" v:groupContext="shape" transform="translate(3.58465,-1.37911)">
			<title>Sheet.15</title>
			<desc>Sim</desc>
			<v:textBlock v:margins="rect(0,0,0,0)" v:tabSpace="42.5197"/>
			<v:textRect cx="8.50394" cy="22.0618" width="17.01" height="9.9"/>
			<rect x="0" y="17.1118" width="17.0079" height="9.9" class="st2"/>
			<text x="0.54" y="24.54" class="st4" v:langID="1033"><v:paragraph v:horizAlign="1"/><v:tabList/>Sim</text>		</g>
		<g id="group16-11" transform="translate(4.77553,-12.7177)" v:mID="16" v:groupContext="group">
			<title>Sheet.16</title>
			<g id="shape17-12" v:mID="17" v:groupContext="shape" transform="translate(8.29337E-14,-0.129)">
				<title>Sheet.17</title>
				<path d="M3.39 26.33 C2.94 25.77 2.85 24.93 3.16 24.31 C3.45 23.75 3.41 23.46 2.75 21.43 C2.08 19.39 1.95 19.15 1.37
							 18.84 C0 18.13 0.11 16.25 1.54 15.84 C2.89 15.45 3.95 16.88 3.27 18.17 C2.97 18.73 3.01 19.01 3.69 21.07
							 C4.38 23.17 4.49 23.37 5.09 23.66 C5.94 24.07 6.25 25.07 5.78 25.93 C5.32 26.79 3.95 27.01 3.39 26.33
							 ZM4.76 25.57 C5.09 25.29 5.06 24.98 4.68 24.75 C4.51 24.65 4.29 24.61 4.2 24.67 C3.9 24.84 3.91 25.43
							 4.22 25.61 C4.38 25.71 4.62 25.69 4.76 25.57 L4.76 25.57 ZM2.27 17.81 C2.51 17.66 2.43 17 2.14 16.83
							 C1.9 16.68 1.43 17.03 1.44 17.34 C1.45 17.63 2.01 17.95 2.27 17.81 ZM8.93 25.93 C8.48 25.38 8.38 24.53
							 8.7 23.92 C8.99 23.35 8.94 23.06 8.28 21.04 C7.61 18.99 7.49 18.75 6.9 18.44 C5.53 17.73 5.64 15.86
							 7.07 15.44 C8.42 15.06 9.48 16.48 8.8 17.77 C8.5 18.34 8.54 18.61 9.22 20.67 C9.91 22.77 10.03 22.98
							 10.62 23.26 C11.47 23.68 11.78 24.68 11.32 25.53 C10.85 26.39 9.48 26.61 8.93 25.93 ZM10.29 25.18 C10.62
							 24.89 10.59 24.58 10.22 24.35 C10.05 24.25 9.83 24.21 9.73 24.27 C9.43 24.44 9.44 25.03 9.75 25.21 C9.91
							 25.31 10.15 25.29 10.29 25.18 L10.29 25.18 ZM7.8 17.41 C8.05 17.27 7.96 16.6 7.67 16.43 C7.43 16.28
							 6.96 16.63 6.97 16.94 C6.98 17.23 7.55 17.55 7.8 17.41 Z" class="st5"/>
			</g>
			<g id="shape18-14" v:mID="18" v:groupContext="shape" transform="translate(2.1967,-7.10543E-15)">
				<title>Sheet.18</title>
				<path d="M1.45 26.71 C0 25.82 0.52 23.58 2.17 23.58 C2.71 23.58 2.75 23.44 3.5 22.7 C4.25 21.96 5.52 20.73 6.38 20.28
							 C6.61 20.63 6.79 21.49 6.81 21.59 C6.26 21.59 4.85 22.73 4.25 23.5 C3.68 24.24 3.55 24.55 3.59 25.14
							 C3.63 25.69 3.53 25.97 3.2 26.29 C2.65 26.84 1.93 27.01 1.45 26.71 ZM2.56 25.44 C2.71 25.02 2.54 24.77
							 2.11 24.77 C1.68 24.77 1.47 25.07 1.61 25.47 C1.75 25.86 2.42 25.84 2.56 25.44 ZM7.61 23.59 C7.61 23.59
							 7.82 23.17 8.61 20.81 C9.64 17.75 9.68 17.5 9.39 16.86 C8.76 15.48 9.99 14.1 11.31 14.7 C11.81 14.92
							 11.97 15.14 12.19 15.82 C12.43 16.55 12.41 16.71 12.02 17.11 C11.77 17.36 11.38 17.64 11.14 17.75 C10.8
							 17.9 10.45 18.69 9.58 21.21 C8.55 24.21 8.82 23.33 9.1 23.87 C9.79 25.21 8.92 24.24 7.61 23.59 ZM11.23
							 16.21 C11.23 15.76 10.98 15.59 10.57 15.75 C10.39 15.83 10.23 15.99 10.21 16.1 C10.15 16.46 10.59 16.81
							 10.92 16.68 C11.09 16.6 11.23 16.39 11.23 16.21 L11.23 16.21 Z" class="st5"/>
			</g>
		</g>
	</g>
</svg>
